<?xml version="1.0" encoding="UTF-8" standalone="no"?>
<!-- Generator: Adobe Illustrator 16.0.0, SVG Export Plug-In . SVG Version: 6.00 Build 0)  -->

<svg
   xmlns:dc="http://purl.org/dc/elements/1.1/"
   xmlns:cc="http://creativecommons.org/ns#"
   xmlns:rdf="http://www.w3.org/1999/02/22-rdf-syntax-ns#"
   xmlns:svg="http://www.w3.org/2000/svg"
   xmlns="http://www.w3.org/2000/svg"
   xmlns:sodipodi="http://sodipodi.sourceforge.net/DTD/sodipodi-0.dtd"
   xmlns:inkscape="http://www.inkscape.org/namespaces/inkscape"
   version="1.1"
   id="Layer_1"
   x="0px"
   y="0px"
   width="48px"
   height="48px"
   viewBox="0 0 48 48"
   enable-background="new 0 0 48 48"
   xml:space="preserve"
   inkscape:version="0.91 r13725"
   sodipodi:docname="calendar157.svg"><metadata
     id="metadata3355"><rdf:RDF><cc:Work
         rdf:about=""><dc:format>image/svg+xml</dc:format><dc:type
           rdf:resource="http://purl.org/dc/dcmitype/StillImage" /></cc:Work></rdf:RDF></metadata><defs
     id="defs3353" /><sodipodi:namedview
     pagecolor="#ffffff"
     bordercolor="#666666"
     borderopacity="1"
     objecttolerance="10"
     gridtolerance="10"
     guidetolerance="10"
     inkscape:pageopacity="0"
     inkscape:pageshadow="2"
     inkscape:window-width="1366"
     inkscape:window-height="705"
     id="namedview3351"
     showgrid="false"
     inkscape:zoom="11.693986"
     inkscape:cx="23.911502"
     inkscape:cy="8.1761617"
     inkscape:window-x="-8"
     inkscape:window-y="-8"
     inkscape:window-maximized="1"
     inkscape:current-layer="Layer_1" /><g
     id="g3337"
     style="fill:#666666"
     transform="matrix(1.0789568,0,0,1.0466418,-1.8452179,-0.90161778)"><polygon
       points="15.851,23.915 15.905,23.915 15.905,38.823 20.188,38.823 20.188,20.03 16.516,20.03 11.546,22.351 12.268,25.631 "
       id="polygon3339"
       style="fill:#666666" /><path
       d="m 34.006,27.85 c -1.327,-0.953 -3.147,-1.357 -4.938,-1.357 -0.462,0 -0.81,0.007 -1.215,0.065 l 0.405,-2.881 7.313,0 0,-3.647 -10.375,0 -1.241,9.86 c 0.781,-0.116 1.501,-0.168 2.541,-0.168 3.756,0 5.286,1.187 5.286,3.123 0,1.993 -1.936,2.86 -3.754,2.86 -1.705,0 -3.409,-0.519 -4.246,-0.923 l -0.781,3.293 c 1.041,0.548 2.948,1.069 5.229,1.069 5.055,0 8.06,-3.091 8.06,-6.585 -10e-4,-2.196 -0.867,-3.756 -2.284,-4.709 z"
       id="path3341"
       style="fill:#666666"
       inkscape:connector-curvature="0" /><path
       d="m 41.439,3.841 0,2.292 c 0,2.311 -1.895,4.223 -4.205,4.223 l -0.214,0 c -2.31,0 -4.225,-1.913 -4.225,-4.223 l 0,-2.597 -4.599,0 0,2.596 c 0,2.311 -1.915,4.223 -4.225,4.223 l -0.212,0 c -2.312,0 -4.208,-1.913 -4.208,-4.223 l 0,-2.596 -4.678,0 0,2.596 c 0,2.311 -1.853,4.223 -4.163,4.223 l -0.214,0 c -2.311,0 -4.188,-1.913 -4.188,-4.223 l 0,-2.256 C 3.612,4.761 1.709,7.282 1.709,10.255 l 0,29.886 c 0,3.711 2.997,6.691 6.708,6.691 l 30.997,0 c 3.711,0 6.7,-2.98 6.7,-6.691 l 0,-29.886 C 46.117,7.244 44.135,4.694 41.439,3.841 Z m 1.348,35.683 c 0,2.148 -1.726,3.898 -3.875,3.898 l -29.989,0 c -2.148,0 -3.881,-1.75 -3.881,-3.898 l 0,-21.232 c 0,-1.463 1.176,-2.624 2.64,-2.624 l 32.473,0 c 1.463,0 2.633,1.161 2.633,2.624 l 0,21.232 z"
       id="path3343"
       style="fill:#666666"
       inkscape:connector-curvature="0" /><path
       d="m 10.499,8.293 0.213,0 c 0.664,0 1.254,-0.28 1.655,-0.747 0.331,-0.384 0.525,-0.867 0.525,-1.414 l 0,0 0,-2.972 0,0 c 0,-0.6 -0.235,-1.144 -0.626,-1.54 C 12.262,1.617 12.262,1.612 12.259,1.609 12.256,1.606 12.255,1.621 12.253,1.618 11.856,1.225 11.313,0.998 10.711,0.998 l -0.213,0 C 9.895,0.998 9.351,1.225 8.954,1.618 8.953,1.621 8.951,1.615 8.948,1.617 8.944,1.621 8.935,1.62 8.932,1.623 8.54,2.02 8.293,2.559 8.293,3.159 l 0,0 0,2.973 0,0 c 0,0.546 0.206,1.03 0.537,1.414 0.402,0.468 1.004,0.747 1.669,0.747 z"
       id="path3345"
       style="fill:#666666"
       inkscape:connector-curvature="0" /><path
       d="m 22.508,7.944 c 0.004,0.002 0.015,0.005 0.018,0.007 0.006,0.004 0.018,-0.008 0.023,-0.004 0.347,0.229 0.764,0.347 1.211,0.347 l 10e-4,0 0.212,0 0,0 c 0.376,0 0.729,-0.078 1.037,-0.245 0.003,-10e-4 0.005,0.006 0.009,0.004 0.007,-0.004 -0.002,-0.004 0.006,-0.009 0.672,-0.375 1.111,-1.088 1.111,-1.912 l 0,-2.973 C 26.136,2.446 25.81,1.812 25.282,1.411 25.278,1.408 25.281,1.404 25.277,1.401 l 0.004,0.017 C 24.916,1.144 24.466,0.999 23.973,0.999 l -0.213,0 c -0.567,0 -1.083,0.199 -1.472,0.552 -0.001,0 -0.002,-0.007 -0.002,-0.007 -0.005,0.004 -0.024,0.004 -0.028,0.008 -0.435,0.401 -0.723,0.97 -0.723,1.608 l 0,2.974 c 0,0.751 0.396,1.415 0.973,1.81 z"
       id="path3347"
       style="fill:#666666"
       inkscape:connector-curvature="0" /><path
       d="m 37.021,8.293 0.213,0 c 0.666,0 1.274,-0.28 1.678,-0.747 0.331,-0.384 0.547,-0.867 0.547,-1.414 l 0,0 0,-2.972 0,0 C 39.459,2.331 38.983,1.61 38.305,1.236 38.3,1.234 38.29,1.232 38.287,1.23 38.233,1.201 38.174,1.175 38.118,1.15 38.108,1.146 38.098,1.142 38.09,1.138 38.076,1.133 38.063,1.128 38.049,1.122 38.028,1.114 38.009,1.106 37.988,1.099 37.977,1.095 37.967,1.092 37.956,1.088 37.933,1.08 37.909,1.088 37.887,1.081 37.681,1.017 37.461,0.998 37.234,0.998 l -0.213,0 c -0.113,0 -0.209,-0.007 -0.318,0.009 -1.054,0.161 -1.845,1.055 -1.845,2.152 l 0,2.974 c -10e-4,1.211 0.952,2.16 2.163,2.16 z"
       id="path3349"
       style="fill:#666666"
       inkscape:connector-curvature="0" /></g></svg>