<?xml version="1.0" encoding="UTF-8" standalone="no"?>
<!-- Generator: Adobe Illustrator 16.0.0, SVG Export Plug-In . SVG Version: 6.00 Build 0)  -->

<svg
   xmlns:dc="http://purl.org/dc/elements/1.1/"
   xmlns:cc="http://creativecommons.org/ns#"
   xmlns:rdf="http://www.w3.org/1999/02/22-rdf-syntax-ns#"
   xmlns:svg="http://www.w3.org/2000/svg"
   xmlns="http://www.w3.org/2000/svg"
   xmlns:sodipodi="http://sodipodi.sourceforge.net/DTD/sodipodi-0.dtd"
   xmlns:inkscape="http://www.inkscape.org/namespaces/inkscape"
   version="1.1"
   id="Layer_1"
   x="0px"
   y="0px"
   width="512px"
   height="512px"
   viewBox="0 0 512 512"
   enable-background="new 0 0 512 512"
   xml:space="preserve"
   inkscape:version="0.91 r13725"
   sodipodi:docname="facebook.svg"><metadata
     id="metadata3350"><rdf:RDF><cc:Work
         rdf:about=""><dc:format>image/svg+xml</dc:format><dc:type
           rdf:resource="http://purl.org/dc/dcmitype/StillImage" /></cc:Work></rdf:RDF></metadata><defs
     id="defs3348" /><sodipodi:namedview
     pagecolor="#ffffff"
     bordercolor="#666666"
     borderopacity="1"
     objecttolerance="10"
     gridtolerance="10"
     guidetolerance="10"
     inkscape:pageopacity="0"
     inkscape:pageshadow="2"
     inkscape:window-width="535"
     inkscape:window-height="405"
     id="namedview3346"
     showgrid="false"
     inkscape:zoom="0.35"
     inkscape:cx="256"
     inkscape:cy="256"
     inkscape:window-x="557"
     inkscape:window-y="139"
     inkscape:window-maximized="0"
     inkscape:current-layer="_x23_020201ff" /><text
     transform="matrix(1 0 0 1 168.7834 543.8093)"
     id="text3337"><tspan
       x="0"
       y="0"
       fill="#FFFF00"
       font-family="'Verdana-Bold'"
       font-size="20"
       id="tspan3339">simpleicon.com</tspan><tspan
       x="-159.59"
       y="24"
       fill="#FFFF00"
       font-family="'Verdana'"
       font-size="20"
       id="tspan3341">Collection Of Flat Icon, Symbols And Glyph Icons</tspan></text>
<g
     id="_x23_020201ff"><path
       d="m 134.42683,66.467938 c 16.066,-15.298 38.918,-20.465 60.475,-21.109 22.799,-0.205 45.589,-0.081 68.388,-0.072 0.09,24.051 0.098,48.111 -0.009,72.161002 -14.734,-0.026 -29.478,0.036 -44.212,-0.026 -9.343,-0.582 -18.937,6.5 -20.635,15.762 -0.224,16.093 -0.081,32.195 -0.072,48.289 21.61,0.089 43.22,-0.027 64.829,0.054 -1.582,23.281 -4.47,46.456 -7.858,69.541 -19.088,0.179 -38.187,-0.018 -57.274,0.099 -0.17,68.665 0.089,137.33 -0.134,205.995 -28.352,0.116 -56.721,-0.054 -85.072,0.08 -0.537,-68.674 0.044,-137.383 -0.295,-206.066 -13.832004,-0.144 -27.672002,0.099 -41.503006,-0.116 0.053,-23.085 0.018,-46.169 0.026,-69.246 13.822004,-0.169 27.654002,0.036 41.477006,-0.098 0.42,-22.442 -0.421,-44.91 0.438,-67.333 1.386,-17.758006 8.154,-35.649002 21.431,-47.915002 z"
       id="path3344"
       inkscape:connector-curvature="0"
       style="fill:#ffffff" /></g></svg>