<?xml version="1.0" encoding="UTF-8" standalone="no"?>
<!-- Generator: Adobe Illustrator 16.2.1, SVG Export Plug-In . SVG Version: 6.00 Build 0)  -->

<svg
   xmlns:dc="http://purl.org/dc/elements/1.1/"
   xmlns:cc="http://creativecommons.org/ns#"
   xmlns:rdf="http://www.w3.org/1999/02/22-rdf-syntax-ns#"
   xmlns:svg="http://www.w3.org/2000/svg"
   xmlns="http://www.w3.org/2000/svg"
   xmlns:sodipodi="http://sodipodi.sourceforge.net/DTD/sodipodi-0.dtd"
   xmlns:inkscape="http://www.inkscape.org/namespaces/inkscape"
   version="1.1"
   id="Layer_1"
   x="0px"
   y="0px"
   width="512px"
   height="512px"
   viewBox="0 0 512 512"
   style="enable-background:new 0 0 512 512;"
   xml:space="preserve"
   inkscape:version="0.91 r13725"
   sodipodi:docname="google.svg"><metadata
     id="metadata3347"><rdf:RDF><cc:Work
         rdf:about=""><dc:format>image/svg+xml</dc:format><dc:type
           rdf:resource="http://purl.org/dc/dcmitype/StillImage" /></cc:Work></rdf:RDF></metadata><defs
     id="defs3345" /><sodipodi:namedview
     pagecolor="#ffffff"
     bordercolor="#666666"
     borderopacity="1"
     objecttolerance="10"
     gridtolerance="10"
     guidetolerance="10"
     inkscape:pageopacity="0"
     inkscape:pageshadow="2"
     inkscape:window-width="640"
     inkscape:window-height="480"
     id="namedview3343"
     showgrid="false"
     inkscape:zoom="1.046875"
     inkscape:cx="256"
     inkscape:cy="256"
     inkscape:window-x="0"
     inkscape:window-y="0"
     inkscape:window-maximized="1"
     inkscape:current-layer="Layer_1" /><g
     id="g3337"
     style="fill:#ffffff"><path
       d="M223.5,82.1c11.8,9.6,36.4,29.7,36.4,68c0,37.3-21.5,54.9-43.1,71.5c-6.7,6.6-14.4,13.6-14.4,24.7   c0,11.1,7.7,17.2,13.3,21.7l18.5,14.1c22.6,18.6,43.1,35.8,43.1,70.6c0,47.4-46.7,95.2-135,95.2C67.9,448,32,413.2,32,375.9   c0-18.1,9.2-43.8,39.5-61.5c31.8-19.1,75-21.7,98-23.2c-7.2-9.1-15.4-18.7-15.4-34.3c0-8.6,2.6-13.6,5.1-19.7   c-5.6,0.5-11.3,1-16.4,1c-54.4,0-85.2-39.8-85.2-79.1c0-23.2,10.8-48.9,32.9-67.5C119.8,68,154.7,64,182.4,64h105.7l-32.8,18.1   H223.5z M187,305.9c-4.1-0.5-6.7-0.5-11.8-0.5c-4.6,0-32.3,1-53.9,8c-11.3,4-44.1,16.1-44.1,51.9c0,35.8,35.4,61.5,90.3,61.5   c49.3,0,75.4-23.2,75.4-54.4C242.9,346.7,226,333.1,187,305.9 M201.9,210.1c11.8-11.6,12.8-27.7,12.8-36.8   c0-36.3-22.1-92.7-64.7-92.7c-13.3,0-27.7,6.5-35.9,16.6c-8.7,10.6-11.3,24.2-11.3,37.3c0,33.8,20,89.7,64.2,89.7   C179.8,224.3,193.6,218.2,201.9,210.1"
       id="path3339"
       style="fill:#ffffff" /><polygon
       points="480,142.3 401.7,142.3 401.7,64.1 384,64.1 384,142.3 304.3,142.3 304.3,160.1 384,160.1 384,241 401.7,241    401.7,160.1 480,160.1  "
       id="polygon3341"
       style="fill:#ffffff" /></g></svg>