<?xml version="1.0" encoding="UTF-8" standalone="no"?>
<!-- Generator: Adobe Illustrator 16.0.0, SVG Export Plug-In . SVG Version: 6.00 Build 0)  -->

<svg
   xmlns:dc="http://purl.org/dc/elements/1.1/"
   xmlns:cc="http://creativecommons.org/ns#"
   xmlns:rdf="http://www.w3.org/1999/02/22-rdf-syntax-ns#"
   xmlns:svg="http://www.w3.org/2000/svg"
   xmlns="http://www.w3.org/2000/svg"
   xmlns:sodipodi="http://sodipodi.sourceforge.net/DTD/sodipodi-0.dtd"
   xmlns:inkscape="http://www.inkscape.org/namespaces/inkscape"
   version="1.1"
   id="Layer_11"
   x="0px"
   y="0px"
   width="100px"
   height="100px"
   viewBox="0 0 100 100"
   enable-background="new 0 0 100 100"
   xml:space="preserve"
   inkscape:version="0.91 r13725"
   sodipodi:docname="group.svg"><metadata
     id="metadata3364"><rdf:RDF><cc:Work
         rdf:about=""><dc:format>image/svg+xml</dc:format><dc:type
           rdf:resource="http://purl.org/dc/dcmitype/StillImage" /></cc:Work></rdf:RDF></metadata><defs
     id="defs3362" /><sodipodi:namedview
     pagecolor="#ffffff"
     bordercolor="#666666"
     borderopacity="1"
     objecttolerance="10"
     gridtolerance="10"
     guidetolerance="10"
     inkscape:pageopacity="0"
     inkscape:pageshadow="2"
     inkscape:window-width="640"
     inkscape:window-height="480"
     id="namedview3360"
     showgrid="false"
     inkscape:zoom="2.36"
     inkscape:cx="50"
     inkscape:cy="50"
     inkscape:window-x="0"
     inkscape:window-y="0"
     inkscape:window-maximized="0"
     inkscape:current-layer="Layer_11" /><path
     d="m 60.305532,19.787063 c 4.606237,3.169628 7.836198,8.533299 8.425497,14.759306 1.877306,0.963305 3.963478,1.517273 6.172731,1.517273 8.071171,0 14.610659,-7.178396 14.610659,-16.033706 0,-8.856676 -6.539488,-16.0350716 -14.610659,-16.0350716 -7.992847,0.00136 -14.476389,7.0515016 -14.598228,15.7921986 z M 50.73376,52.618571 c 8.068685,0 14.61066,-7.179761 14.61066,-16.035071 0,-8.855311 -6.541975,-16.033707 -14.61066,-16.033707 -8.068685,0 -14.613146,7.17976 -14.613146,16.035071 0,8.855311 6.544461,16.033707 14.613146,16.033707 z m 6.196352,1.092928 -12.396434,0 c -10.315235,0 -18.707164,9.211433 -18.707164,20.530949 l 0,16.640889 0.03854,0.260611 1.044328,0.358852 c 9.844044,3.374296 18.396353,4.501336 25.435627,4.501336 13.749089,0 21.718314,-4.302126 22.21064,-4.576381 l 0.97595,-0.543053 0.104433,0 0,-16.642254 C 75.637277,62.922932 67.245347,53.711499 56.930112,53.711499 Z m 24.173729,-16.553564 -12.301946,0 c -0.133028,5.401876 -2.234118,10.266157 -5.556079,13.764619 9.16896,2.992249 15.876287,12.323754 15.876287,23.345819 l 0,5.12762 C 91.268644,78.906154 98.268134,75.129344 98.72938,74.874191 l 0.97595,-0.543053 0.104433,0 0,-16.643618 c 0,-11.319516 -8.39193,-20.529585 -18.705922,-20.529585 z M 25.096727,36.065007 c 2.858229,0 5.517538,-0.915549 7.770305,-2.475121 0.716111,-5.126256 3.220014,-9.605761 6.796841,-12.656681 0.01492,-0.30018 0.04103,-0.597632 0.04103,-0.900541 0,-8.856675 -6.541975,-16.0350707 -14.608173,-16.0350707 -8.071171,0 -14.61066,7.1783957 -14.61066,16.0350707 0,8.853947 6.539489,16.032343 14.61066,16.032343 z m 13.121247,14.857547 c -3.307041,-3.480724 -5.400672,-8.31908 -5.553592,-13.68821 -0.456272,-0.03684 -0.907571,-0.07641 -1.372547,-0.07641 l -12.396433,0 c -10.3152354,0 -18.70716471,9.210069 -18.70716471,20.529585 l 0,16.642253 0.0385407,0.257882 1.044329,0.360216 c 7.8971163,2.707078 14.945094,3.952825 21.066851,4.345788 l 0,-5.025286 c 0.0025,-11.022065 6.70857,-20.352206 15.880016,-23.345819 z"
     id="path3358"
     style="fill:#666666"
     inkscape:connector-curvature="0" /></svg>