<?xml version="1.0" encoding="iso-8859-1"?>
<!-- Generator: Adobe Illustrator 16.0.0, SVG Export Plug-In . SVG Version: 6.00 Build 0)  -->
<!DOCTYPE svg PUBLIC "-//W3C//DTD SVG 1.1//EN" "http://www.w3.org/Graphics/SVG/1.1/DTD/svg11.dtd">
<svg version="1.1" id="Layer_1" xmlns="http://www.w3.org/2000/svg" xmlns:xlink="http://www.w3.org/1999/xlink" x="0px" y="0px"
	 width="512px" height="512px" viewBox="0 0 512 512" style="enable-background:new 0 0 512 512;" xml:space="preserve">
<g>
	<path d="M405.248,171.017c-14.649-22.722-34.644-42.102-57.818-56.046c-4.335-2.607-9.737-2.682-14.142-0.191
		c-4.402,2.49-7.126,7.157-7.126,12.216v29.031c0,4.379,2.045,8.508,5.529,11.162c31.093,23.686,49.654,61.019,49.654,99.866
		c0,69.115-56.23,125.345-125.346,125.345s-125.346-56.23-125.346-125.345c0-38.848,18.562-76.181,49.654-99.866
		c3.483-2.654,5.529-6.783,5.529-11.162v-29.031c0-5.059-2.724-9.726-7.126-12.216c-4.405-2.49-9.808-2.416-14.142,0.191
		c-23.176,13.944-43.169,33.324-57.819,56.046c-18.46,28.63-28.218,61.838-28.218,96.038c0,47.402,18.46,91.969,51.979,125.488
		c33.521,33.519,78.086,51.979,125.488,51.979s91.968-18.46,125.487-51.979c33.519-33.519,51.979-78.085,51.979-125.488
		C433.467,232.855,423.708,199.646,405.248,171.017z"/>
	<path d="M239.605,283.014h32.789c7.257,0,13.16-5.905,13.16-13.162V80.641c0-7.257-5.903-13.162-13.16-13.162h-32.789
		c-7.257,0-13.161,5.904-13.161,13.162v189.211C226.444,277.109,232.349,283.014,239.605,283.014z"/>
</g>
</svg>
